<svg xmlns="http://www.w3.org/2000/svg" viewBox="0 0 128 128" fill="#555">
  <path d="M68,56H80v8H68a4,4,0,0,1-4-4h0A4,4,0,0,1,68,56ZM96,68h0a4,4,0,0,0-4-4H80v8H92A4,4,0,0,0,96,68ZM64,76h0a4,4,0,0,0,4,4H80V72H68A4,4,0,0,0,64,76Zm32,8h0a4,4,0,0,0-4-4H80v8H92A4,4,0,0,0,96,84ZM64,92h0a4,4,0,0,0,4,4H80V88H68A4,4,0,0,0,64,92Zm32,8h0a4,4,0,0,0-4-4H80v8H92A4,4,0,0,0,96,100Zm32-60v80a8,8,0,0,1-8,8H36L4,111a8,8,0,0,1-4-7V24a8,8,0,0,1,8-8H92l32,16A8,8,0,0,1,128,40Zm-16,8H92a4,4,0,0,1,0,8H80V48H48v64H68a4,4,0,0,1,0-8H80v8h32Z"/>
</svg>
