<svg xmlns="http://www.w3.org/2000/svg" viewBox="0 0 48 48">
  <title>audio</title>
  <path d="M24,2A22,22,0,1,0,46,24,22,22,0,0,0,24,2ZM20,30.8a.5.5,0,0,1-.9.4L16,28H11.5A1.5,1.5,0,0,1,10,26.5v-5A1.5,1.5,0,0,1,11.5,20H16l3.1-3.1a.5.5,0,0,1,.9.4ZM24,26a2,2,0,1,1,2-2A2,2,0,0,1,24,26Zm5,4.5a1.5,1.5,0,0,1-1.1-2.6,5.5,5.5,0,0,0,0-7.8A1.5,1.5,0,0,1,30,18a8.5,8.5,0,0,1,0,12A1.5,1.5,0,0,1,29,30.5Zm5.3,3.8a1.5,1.5,0,0,1-2.1-2.1,11.5,11.5,0,0,0,0-16.3,1.5,1.5,0,0,1,2.1-2.1,14.5,14.5,0,0,1,0,20.5Z" fill="#318"/>
</svg>
