<svg xmlns="http://www.w3.org/2000/svg" viewBox="0 0 48 48">
  <title>code</title>
  <path d="M39.4,9.6l-7-7A8.9,8.9,0,0,0,26,0H9A3,3,0,0,0,6,3V45a3,3,0,0,0,3,3H39a3,3,0,0,0,3-3V16A8.9,8.9,0,0,0,39.4,9.6ZM36,42H12V6h9a3,3,0,0,1,3,3v6a3,3,0,0,0,3,3h6a3,3,0,0,1,3,3ZM31,24H21a1,1,0,0,1-1-1V21a1,1,0,0,1,1-1H31a1,1,0,0,1,1,1v2A1,1,0,0,1,31,24ZM29,36H21a1,1,0,0,1-1-1V33a1,1,0,0,1,1-1h8a1,1,0,0,1,1,1v2A1,1,0,0,1,29,36Zm-3.9-6H16.9a.9.9,0,0,1-.9-.9V26.9a.9.9,0,0,1,.9-.9h8.2a.9.9,0,0,1,.9.9v2.2A.9.9,0,0,1,25.1,30ZM21,18H17a1,1,0,0,1-1-1V15a1,1,0,0,1,1-1h4a1,1,0,0,1,1,1v2A1,1,0,0,1,21,18Z" fill="#138"/>
</svg>
