<svg xmlns="http://www.w3.org/2000/svg" viewBox="0 0 48 48">
  <title>script</title>
  <path d="M45.9,4.9A10.4,10.4,0,0,0,37,0H14A10.4,10.4,0,0,0,4.7,15.1L12.1,30H5a3,3,0,0,0-2.7,1.7l-.6,1.3A10.4,10.4,0,0,0,11,48H34a10.4,10.4,0,0,0,9.3-15.1L35.9,18H43a3,3,0,0,0,2.7-1.7l.6-1.3A10.4,10.4,0,0,0,45.9,4.9Zm-31.1,35a4.4,4.4,0,0,1-7.5,0A4.3,4.3,0,0,1,6.9,36h8.2A4.3,4.3,0,0,1,14.8,39.9ZM38,35.6A4.4,4.4,0,0,1,34,42H20.4a10.3,10.3,0,0,0-.1-9.1L10,12.4A4.4,4.4,0,0,1,14,6a4.4,4.4,0,0,1,4,6.4l-.6,1.3A3,3,0,0,0,20,18h9.1ZM41.1,12H24.3a10.3,10.3,0,0,0-.9-6H37a4.4,4.4,0,0,1,4.1,6Z" fill="#d90"/>
</svg>
