<svg xmlns="http://www.w3.org/2000/svg" viewBox="0 0 48 48">
  <title>site</title>
  <path d="M39.4,9.6l-7-7A8.9,8.9,0,0,0,26,0H9A3,3,0,0,0,6,3V45a3,3,0,0,0,3,3H39a3,3,0,0,0,3-3V16A8.9,8.9,0,0,0,39.4,9.6ZM36,42H12V6h9a3,3,0,0,1,3,3v6a3,3,0,0,0,3,3h6a3,3,0,0,1,3,3ZM31,24H17a1,1,0,0,1-1-1V21a1,1,0,0,1,1-1H31a1,1,0,0,1,1,1v2A1,1,0,0,1,31,24ZM21,38H17a1,1,0,0,1-1-1V35a1,1,0,0,1,1-1h4a1,1,0,0,1,1,1v2A1,1,0,0,1,21,38Zm10,0H25a1,1,0,0,1-1-1V33a1,1,0,0,1,1-1h6a1,1,0,0,1,1,1v4A1,1,0,0,1,31,38ZM21,18H17a1,1,0,0,1-1-1V13a1,1,0,0,1,1-1h4a1,1,0,0,1,1,1v4A1,1,0,0,1,21,18Zm0,14H17a1,1,0,0,1-1-1V27a1,1,0,0,1,1-1h4a1,1,0,0,1,1,1v4A1,1,0,0,1,21,32Zm10-2H25a1,1,0,0,1-1-1V27a1,1,0,0,1,1-1h6a1,1,0,0,1,1,1v2A1,1,0,0,1,31,30Z" fill="#c25"/>
</svg>
