<svg xmlns="http://www.w3.org/2000/svg" viewBox="0 0 48 48">
  <title>stylesheet</title>
  <path d="M43.7,32H30.7a43.6,43.6,0,0,1,0-16H43.7a3,3,0,0,0,2.9-3.8C44.5,4.5,40.7,0,36,0H12C6,0,0,8.2,0,24S6,48,12,48H36c4.7,0,8.5-4.5,10.6-12.2A3,3,0,0,0,43.7,32ZM36,6c.8,0,2.2,1.1,3.5,4H21.9a25.1,25.1,0,0,0-1.7-4ZM16.8,34.2C15.3,39.9,13,42,12,42S6,35.2,6,24,9.9,6,12,6s3.3,2.1,4.8,7.8A3,3,0,0,0,19.7,16h5a49.6,49.6,0,0,0,0,16h-5A3,3,0,0,0,16.8,34.2ZM36,42H20.2a25.1,25.1,0,0,0,1.7-4H39.5C38.2,40.9,36.8,42,36,42Z" fill="#d58"/>
</svg>
