<svg xmlns="http://www.w3.org/2000/svg" viewBox="0 0 128 128" fill="#333">
  <title>video</title>
  <path d="M120,15.9H8a8,8,0,0,0-8,8v80a8,8,0,0,0,8,8H120a8,8,0,0,0,8-8v-80A8,8,0,0,0,120,15.9ZM16,93.9a2,2,0,0,1-2,2H10a2,2,0,0,1-2-2v-4a2,2,0,0,1,2-2h4a2,2,0,0,1,2,2Zm0-16a2,2,0,0,1-2,2H10a2,2,0,0,1-2-2v-4a2,2,0,0,1,2-2h4a2,2,0,0,1,2,2Zm0-16a2,2,0,0,1-2,2H10a2,2,0,0,1-2-2v-4a2,2,0,0,1,2-2h4a2,2,0,0,1,2,2Zm0-16a2,2,0,0,1-2,2H10a2,2,0,0,1-2-2v-4a2,2,0,0,1,2-2h4a2,2,0,0,1,2,2Zm0-16a2,2,0,0,1-2,2H10a2,2,0,0,1-2-2v-4a2,2,0,0,1,2-2h4a2,2,0,0,1,2,2Zm76,46a4,4,0,0,1-6.8,2.8l-12-12A4,4,0,0,1,72,63.9v12a4,4,0,0,1-4,4H44a4,4,0,0,1-4-4v-24a4,4,0,0,1,4-4H68a4,4,0,0,1,4,4v12a4,4,0,0,1,1.2-2.8l12-12A4,4,0,0,1,92,51.9Zm28,18a2,2,0,0,1-2,2h-4a2,2,0,0,1-2-2v-4a2,2,0,0,1,2-2h4a2,2,0,0,1,2,2Zm0-16a2,2,0,0,1-2,2h-4a2,2,0,0,1-2-2v-4a2,2,0,0,1,2-2h4a2,2,0,0,1,2,2Zm0-16a2,2,0,0,1-2,2h-4a2,2,0,0,1-2-2v-4a2,2,0,0,1,2-2h4a2,2,0,0,1,2,2Zm0-16a2,2,0,0,1-2,2h-4a2,2,0,0,1-2-2v-4a2,2,0,0,1,2-2h4a2,2,0,0,1,2,2Zm0-16a2,2,0,0,1-2,2h-4a2,2,0,0,1-2-2v-4a2,2,0,0,1,2-2h4a2,2,0,0,1,2,2Z"/>
</svg>
