<svg xmlns="http://www.w3.org/2000/svg" viewBox="0 0 48 48">
  <title>video</title>
  <path d="M45,6H3A3,3,0,0,0,0,9V39a3,3,0,0,0,3,3H45a3,3,0,0,0,3-3V9A3,3,0,0,0,45,6ZM8,37a1,1,0,0,1-1,1H5a1,1,0,0,1-1-1V35a1,1,0,0,1,1-1H7a1,1,0,0,1,1,1Zm0-8a1,1,0,0,1-1,1H5a1,1,0,0,1-1-1V27a1,1,0,0,1,1-1H7a1,1,0,0,1,1,1Zm0-8a1,1,0,0,1-1,1H5a1,1,0,0,1-1-1V19a1,1,0,0,1,1-1H7a1,1,0,0,1,1,1Zm0-8a1,1,0,0,1-1,1H5a1,1,0,0,1-1-1V11a1,1,0,0,1,1-1H7a1,1,0,0,1,1,1ZM34,29a.5.5,0,0,1-.8.4L28,25.5V28a2,2,0,0,1-2,2H18a2,2,0,0,1-2-2V20a2,2,0,0,1,2-2h8a2,2,0,0,1,2,2v2.5l5.2-3.9a.5.5,0,0,1,.8.4Zm10,8a1,1,0,0,1-1,1H41a1,1,0,0,1-1-1V35a1,1,0,0,1,1-1h2a1,1,0,0,1,1,1Zm0-8a1,1,0,0,1-1,1H41a1,1,0,0,1-1-1V27a1,1,0,0,1,1-1h2a1,1,0,0,1,1,1Zm0-8a1,1,0,0,1-1,1H41a1,1,0,0,1-1-1V19a1,1,0,0,1,1-1h2a1,1,0,0,1,1,1Zm0-8a1,1,0,0,1-1,1H41a1,1,0,0,1-1-1V11a1,1,0,0,1,1-1h2a1,1,0,0,1,1,1Z" fill="#333"/>
</svg>
